Genre:Comedy | Drama
Language:English
 
http://www.imdb.com/title/tt1658851/

Source:BluRay.x264.DTS-HDChina Thanks!
Subtitles:Romana

Format : AVI
Format/Info : Audio Video Interleave
File size : 1 004 MiB
Duration : 1h 36mn
Overall bit rate : 1 461 Kbps

Video
ID : 0
Format : MPEG-4 Visual
Format profile : Advanced Simple@L5
Format settings, BVOP : Yes
Format settings, QPel : No
Format settings, GMC : No warppoints
Format settings, Matrix : Default (H.263)
Codec ID : XVID
Codec ID/Hint : XviD
Duration : 1h 36mn
Bit rate : 1 004 Kbps
Width : 640 pixels
Height : 272 pixels
Display aspect ratio : 2.35:1
Frame rate : 24.000 fps
Color space : YUV
Chroma subsampling : 4:2:0
Bit depth : 8 bits
Scan type : Progressive
Bits/(Pixel*Frame) : 0.240
Stream size : 690 MiB (69%)
Writing library : XviD 1.2.1 (UTC 2008-12-04)

Audio
ID : 1
Format : AC-3
Format/Info : Audio Coding 3
Mode extension : CM (complete main)
Codec ID : 2000
Duration : 1h 36mn
Bit rate mode : Constant
Bit rate : 448 Kbps
Channel(s) : 6 channels
Channel positions : Front: L C R, Side: L R, LFE
Sampling rate : 48.0 KHz
Bit depth : 16 bits
Stream size : 308 MiB (31%)
Alignment : Aligned on interleaves
Interleave, duration : 42 ms (1.00 video frame)
Interleave, preload duration : 512 ms


Plot:
The ultimate nostalgia trip through everything edible in 1960's Britain
 
http://www.pix2links.com/images/21345078272700382427.png
 
http://www.pix2links.com/images/62514158788383638548.png
 
http://www.pix2links.com/images/89999655715845585697.png
 
http://www.pix2links.com/images/36105688343126932264.png